<svg width="45" height="32" fill="none" xmlns="http://www.w3.org/2000/svg"><path fill-rule="evenodd" clip-rule="evenodd" d="m7.717 11.11 5.782-5.782 5.783 5.783-5.783 5.782-5.782-5.782Zm-1.414 1.415a2 2 0 0 1 0-2.828l5.782-5.783a2 2 0 0 1 2.829 0l5.782 5.783a2 2 0 0 1 0 2.828l-5.783 5.783a2 2 0 0 1-2.828 0l-5.782-5.783Zm19.525-1.414 5.783-5.783 5.782 5.783-5.782 5.782-5.783-5.782Zm-1.414 1.414a2 2 0 0 1 0-2.828l5.782-5.783a2 2 0 0 1 2.829 0l5.782 5.783a2 2 0 0 1 0 2.828l-5.782 5.783a2 2 0 0 1-2.829 0l-5.782-5.783Z" fill="#E3BF77"/><path d="M0 16a2 2 0 0 1 2-2h41a2 2 0 0 1 2 2v7a1 1 0 0 1-1 1H1a1 1 0 0 1-1-1v-7Z" fill="#fff"/><path fill-rule="evenodd" clip-rule="evenodd" d="M41 2H4v12h37V2ZM2 2v12a2 2 0 0 0-2 2v7a1 1 0 0 0 1 1h1v4a1 1 0 0 0 1 1h1v2a1 1 0 1 0 2 0v-2h33v2a1 1 0 1 0 2 0v-2h1a1 1 0 0 0 1-1v-4h1a1 1 0 0 0 1-1v-7a2 2 0 0 0-2-2V2a2 2 0 0 0-2-2H4a2 2 0 0 0-2 2Zm39 22H4v3h37v-3Zm1-2h1v-6H2v6h40Z" fill="#E3BF77"/></svg>