<svg width="32" height="32" viewBox="0 0 32 32" fill="none" xmlns="http://www.w3.org/2000/svg">
<path fill-rule="evenodd" clip-rule="evenodd" d="M23.3337 13.875H27.3125C29.5525 13.875 31.375 15.6975 31.375 17.9375C31.375 20.1775 29.5525 22 27.3125 22H25.375V24.1301C26.1501 24.9666 26.625 26.085 26.625 27.3125C26.625 29.8972 24.5222 32 21.9375 32H9.4375C6.85278 32 4.75 29.8972 4.75 27.3125C4.75 26.085 5.22485 24.9666 6 24.1301V22H4.0625C1.82251 22 0 20.1775 0 17.9375C0 15.6975 1.82251 13.875 4.0625 13.875H8.04126C7.33862 12.6157 6.9375 11.1665 6.9375 9.625C6.9375 8.88892 7.02856 8.16284 7.2085 7.45752C6.08569 6.71582 5.375 5.44043 5.375 4.0625C5.375 1.82251 7.19751 0 9.4375 0C10.6592 0 11.79 0.541016 12.5522 1.45361C13.5493 1.06934 14.6003 0.875 15.6875 0.875C16.7747 0.875 17.8257 1.06934 18.8228 1.45361C19.585 0.541016 20.7158 0 21.9375 0C24.1775 0 26 1.82251 26 4.0625C26 5.44043 25.2893 6.71582 24.1665 7.45752C24.3464 8.16284 24.4375 8.88892 24.4375 9.625C24.4375 11.1665 24.0364 12.6157 23.3337 13.875ZM9.4375 1.875C8.2312 1.875 7.25 2.8562 7.25 4.0625C7.25 4.96655 7.81836 5.78906 8.66406 6.10889C9.14258 6.29004 9.3877 6.82104 9.21484 7.30249C8.94775 8.04639 8.8125 8.82788 8.8125 9.625C8.8125 13.0979 11.4011 15.9771 14.75 16.4358V14.3293L14.0183 13.9634C13.5552 13.7319 13.3674 13.1687 13.5991 12.7056C13.8306 12.2427 14.3938 12.0549 14.8567 12.2864L15.6875 12.7019L16.5183 12.2866C16.9814 12.0549 17.5444 12.2427 17.7759 12.7058C18.0076 13.1689 17.8198 13.7319 17.3567 13.9636L16.625 14.3293V16.4358C19.9739 15.9771 22.5625 13.0979 22.5625 9.625C22.5625 8.82788 22.4272 8.04639 22.1602 7.30249C21.9873 6.82104 22.2324 6.29004 22.7107 6.10889C23.5566 5.78906 24.125 4.96655 24.125 4.0625C24.125 2.8562 23.1438 1.875 21.9375 1.875C21.1174 1.875 20.3728 2.32837 19.9944 3.05811C19.759 3.51221 19.2026 3.69385 18.7446 3.46582C17.7898 2.99097 16.7612 2.75 15.6875 2.75C14.6138 2.75 13.5852 2.99097 12.6304 3.46582C12.1724 3.6936 11.616 3.51221 11.3806 3.05811C11.0022 2.32837 10.2576 1.875 9.4375 1.875ZM9.4375 24.5C7.88672 24.5 6.625 25.7617 6.625 27.3125C6.625 28.8633 7.88672 30.125 9.4375 30.125C10.9883 30.125 12.25 28.8633 12.25 27.3125C12.25 25.7617 10.9883 24.5 9.4375 24.5ZM19.125 27.3125C19.125 28.8633 20.3867 30.125 21.9375 30.125C23.4883 30.125 24.75 28.8633 24.75 27.3125C24.75 25.7617 23.4883 24.5 21.9375 24.5C20.3867 24.5 19.125 25.7617 19.125 27.3125ZM24.4375 20.125H27.3125C28.5188 20.125 29.5 19.1438 29.5 17.9375C29.5 16.7312 28.5188 15.75 27.3125 15.75H21.9297C20.3408 17.3689 18.1296 18.375 15.6875 18.375C13.2454 18.375 11.0342 17.3689 9.44531 15.75H4.0625C2.8562 15.75 1.875 16.7312 1.875 17.9375C1.875 19.1438 2.8562 20.125 4.0625 20.125H6.9375C7.45532 20.125 7.875 20.5447 7.875 21.0625V22.8938C8.36401 22.7202 8.88965 22.625 9.4375 22.625C12.0222 22.625 14.125 24.7278 14.125 27.3125C14.125 28.3669 13.7749 29.3411 13.1851 30.125H18.1899C17.6001 29.3411 17.25 28.3669 17.25 27.3125C17.25 24.7278 19.3528 22.625 21.9375 22.625C22.4854 22.625 23.011 22.7202 23.5 22.8938V21.0625C23.5 20.5447 23.9197 20.125 24.4375 20.125ZM13.1875 9.5625C13.1875 10.0803 12.7678 10.5 12.25 10.5C11.7322 10.5 11.3125 10.0803 11.3125 9.5625C11.3125 9.04468 11.7322 8.625 12.25 8.625C12.7678 8.625 13.1875 9.04468 13.1875 9.5625ZM20.0625 9.5625C20.0625 10.0803 19.6428 10.5 19.125 10.5C18.6072 10.5 18.1875 10.0803 18.1875 9.5625C18.1875 9.04468 18.6072 8.625 19.125 8.625C19.6428 8.625 20.0625 9.04468 20.0625 9.5625Z" fill="#E3BF77"/>
</svg>
