<svg width="45" height="32" viewBox="0 0 45 32" fill="none" xmlns="http://www.w3.org/2000/svg">
<path fill-rule="evenodd" clip-rule="evenodd" d="M7.7168 11.1109L13.4993 5.32843L19.2817 11.1109L13.4993 16.8934L7.7168 11.1109ZM6.30258 12.5251C5.52154 11.7441 5.52153 10.4777 6.30258 9.69669L12.0851 3.91422C12.8661 3.13317 14.1324 3.13317 14.9135 3.91422L20.696 9.69669C21.477 10.4777 21.477 11.7441 20.696 12.5251L14.9135 18.3076C14.1324 19.0886 12.8661 19.0886 12.0851 18.3076L6.30258 12.5251ZM25.8281 11.1109L31.6106 5.32843L37.3931 11.1109L31.6106 16.8934L25.8281 11.1109ZM24.4139 12.5251C23.6329 11.7441 23.6329 10.4777 24.4139 9.69669L30.1964 3.91422C30.9774 3.13317 32.2438 3.13317 33.0248 3.91422L38.8073 9.69669C39.5883 10.4777 39.5883 11.7441 38.8073 12.5251L33.0248 18.3076C32.2438 19.0886 30.9774 19.0886 30.1964 18.3076L24.4139 12.5251Z" fill="#E3BF77"/>
<path d="M0 16C0 14.8954 0.895431 14 2 14H43C44.1046 14 45 14.8954 45 16V23C45 23.5523 44.5523 24 44 24H1C0.447715 24 0 23.5523 0 23V16Z" fill="white"/>
<path fill-rule="evenodd" clip-rule="evenodd" d="M41 2H4V14H41V2ZM2 2V14C0.895431 14 0 14.8954 0 16V23C0 23.5523 0.447715 24 1 24H2V28C2 28.5523 2.44771 29 3 29H4V31C4 31.5523 4.44772 32 5 32C5.55228 32 6 31.5523 6 31V29H39V31C39 31.5523 39.4477 32 40 32C40.5523 32 41 31.5523 41 31V29H42C42.5523 29 43 28.5523 43 28V24H44C44.5523 24 45 23.5523 45 23V16C45 14.8954 44.1046 14 43 14V2C43 0.895431 42.1046 0 41 0H4C2.89543 0 2 0.895431 2 2ZM41 24H4V27H41V24ZM42 22H43V16H41H4H2V22H3H42Z" fill="#E3BF77"/>
</svg>
