<svg width="9" height="17" viewBox="0 0 9 17" fill="none" xmlns="http://www.w3.org/2000/svg">
<path d="M1.9453 3.29236C1.9453 3.72077 1.9453 5.63293 1.9453 5.63293H0V8.49498H1.9453V17H5.94137V8.49522H8.62291C8.62291 8.49522 8.87405 7.12288 8.99579 5.62237C8.64677 5.62237 5.95648 5.62237 5.95648 5.62237C5.95648 5.62237 5.95648 3.95732 5.95648 3.66547C5.95648 3.37299 6.39217 2.97956 6.82279 2.97956C7.25261 2.97956 8.15978 2.97956 9 2.97956C9 2.58989 9 1.24348 9 1.02236e-08C7.87833 1.02236e-08 6.60224 1.02236e-08 6.03974 1.02236e-08C1.84652 -0.000197613 1.9453 2.8647 1.9453 3.29236Z" fill="#ABABAB"/>
</svg>
