<svg width="201" height="56" viewBox="0 0 201 56" fill="none" xmlns="http://www.w3.org/2000/svg">
<path fill-rule="evenodd" clip-rule="evenodd" d="M48.5924 2.9153C48.6087 3.35582 48.0952 3.71144 47.4534 3.70414C46.8511 3.69718 46.3792 3.37078 46.3678 2.95253C46.3553 2.51235 46.8278 2.16892 47.4569 2.16022C48.0657 2.15186 48.5765 2.49182 48.5924 2.9153ZM164.079 28.7833C164.469 29.2096 164.655 29.7239 164.694 30.3102C164.653 30.9271 164.461 31.4745 163.85 31.7696C163.299 32.0358 162.87 31.8385 162.763 31.2452C162.607 30.3906 162.788 29.5837 163.239 28.8498C163.484 28.4514 163.766 28.4409 164.079 28.7833ZM82.1946 34.5543L82.2886 34.6462C81.9264 35.9925 81.4008 37.2598 80.4116 38.2838C80.0921 38.6147 79.6702 38.5333 79.4409 38.1269C79.2039 37.7072 79.1713 37.2403 79.4516 36.861C79.834 36.3436 80.2572 35.8373 80.7447 35.4235C81.0386 35.1744 81.387 34.9899 81.7355 34.8055L81.7356 34.8055L81.7357 34.8054L81.7357 34.8054L81.7358 34.8054C81.8903 34.7236 82.0449 34.6418 82.1946 34.5543ZM87.986 27.3831C88.0507 27.3512 88.1155 27.3193 88.1749 27.2833C89.0926 27.3699 89.3788 27.7572 89.1058 28.5843C88.813 29.4702 88.2846 30.1881 87.4758 30.6589C87.276 30.7754 86.9377 30.8433 86.7611 30.749C86.6199 30.6735 86.5571 30.3106 86.5807 30.0879C86.6785 29.1713 87.0574 28.3557 87.6174 27.634C87.7039 27.5222 87.845 27.4526 87.986 27.3831ZM151.778 23.3453C152.102 23.3286 152.305 23.5677 152.297 23.9491C152.288 23.9702 152.278 23.9974 152.266 24.0284V24.0284V24.0284C152.234 24.113 152.191 24.2264 152.126 24.3252C151.244 25.6652 150.225 26.8873 148.989 27.9138C148.746 28.1149 148.471 28.2917 148.185 28.4208C148.068 28.4731 147.927 28.4703 147.786 28.4675C147.722 28.4662 147.658 28.465 147.597 28.4688C147.593 28.4099 147.584 28.3492 147.575 28.2885V28.2885V28.2885V28.2885L147.575 28.2885C147.555 28.1568 147.535 28.0252 147.572 27.912C148.001 26.5999 148.627 25.4032 149.729 24.5236C150.161 24.178 150.612 23.852 151.08 23.5566C151.279 23.4303 151.54 23.3575 151.778 23.3453ZM149.297 5.56291L149.297 5.56298C149.315 5.60189 149.332 5.64057 149.348 5.67918C149.136 5.64872 148.923 5.61845 148.708 5.58796C148.024 5.49103 147.324 5.3919 146.628 5.27728C146.499 5.2564 146.338 5.13114 146.283 5.01144C145.918 4.21703 145.573 3.41324 145.231 2.6077C145.043 2.16335 145.177 1.86514 145.622 1.67933C146.613 1.2656 147.934 1.8373 148.308 2.85127C148.496 3.35907 148.678 3.86913 148.86 4.37922L148.86 4.37931C148.972 4.69306 149.083 5.00682 149.197 5.32008C149.227 5.4028 149.262 5.48332 149.297 5.56291ZM156.405 6.81246L156.399 6.81149C155.368 6.63609 154.292 6.45311 153.307 6.28534C153.304 6.22864 153.305 6.17665 153.306 6.12869C153.307 6.03685 153.309 5.95981 153.283 5.89283C152.876 4.81947 152.465 3.74798 152.053 2.67645L152.052 2.67416L152.052 2.67365C151.902 2.28332 151.752 1.89299 151.602 1.50256C151.386 0.937463 151.504 0.679625 152.089 0.527566C152.764 0.351846 153.44 0.388034 154.082 0.662575C154.256 0.736693 154.432 0.900933 154.519 1.0697C155.413 2.80152 156.028 4.63877 156.524 6.51952C156.545 6.60089 156.586 6.67725 156.626 6.753L156.626 6.75302L156.626 6.75304L156.626 6.75306L156.626 6.75308C156.644 6.78841 156.663 6.82361 156.679 6.85913L156.405 6.81246ZM21.6506 32.5949C20.966 33.0501 20.1032 33.2776 18.867 33.2735C17.753 33.2338 16.504 32.7167 15.5259 31.6259C14.6797 30.6822 14.5118 29.6303 15.0225 28.7639C15.7219 27.5776 16.8582 27.0359 18.0999 27.2965C20.2239 27.7426 21.9881 30.0238 21.8858 32.2157C21.8799 32.3475 21.7654 32.5191 21.6506 32.5949ZM22.7781 31.7799C22.7749 31.7814 22.7718 31.783 22.7688 31.7845C22.3594 29.282 20.8467 27.7287 18.5645 26.8946C16.8873 26.2815 15.3844 26.8215 14.4965 28.2315C13.8196 29.307 13.8522 30.455 14.6398 31.4536C15.6494 32.7345 17.0403 33.3424 18.6061 33.5964C19.7625 33.7843 20.8665 33.6434 21.8834 32.9335C21.9743 34.8985 21.5701 36.6341 20.0397 37.9306C19.2521 38.5977 18.272 38.8513 17.2808 38.9999C15.1658 39.3166 13.0723 39.1774 11.0302 38.5277C8.90616 37.852 7.34697 35.7541 7.24358 33.5184C7.18703 32.2894 7.39936 31.1077 7.82611 29.9629C9.06159 26.6489 11.0975 23.9407 14.0243 21.957C16.4772 20.2947 19.1414 19.8295 21.9836 20.8282C23.0838 21.2148 24.0757 21.7993 24.8557 22.6846C26.146 24.1498 26.409 25.8413 25.8483 27.6744C25.3341 29.3557 24.2891 30.6641 22.9037 31.7146C22.875 31.7364 22.8412 31.7515 22.8096 31.7656L22.7873 31.7756C22.7842 31.777 22.7811 31.7785 22.7781 31.7799ZM21.1718 19.9847C20.9993 19.9558 20.8269 19.9266 20.5847 19.8855C21.9439 19.3064 23.2886 18.7029 24.6301 18.1008L24.6302 18.1007C28.7236 16.2635 32.787 14.4397 37.1418 13.3636C38.5909 13.0055 40.0464 12.6733 41.5228 12.3364L41.5229 12.3363L41.5231 12.3363L41.5232 12.3363L41.5234 12.3362C42.1955 12.1828 42.8719 12.0284 43.554 11.8702C43.5436 11.9249 43.5364 11.9699 43.5302 12.0083C43.5194 12.0756 43.5119 12.1228 43.4958 12.1666C42.0813 16.0478 40.512 19.858 38.4043 23.4247C36.9679 25.8563 35.1631 27.9931 33.2938 30.0966C31.3353 32.3002 29.1537 34.1931 26.5842 35.6368C24.8963 36.5847 23.1168 37.312 21.2838 37.9174C21.2506 37.9285 21.2151 37.9326 21.172 37.9377C21.1498 37.9404 21.1257 37.9432 21.0989 37.9473C21.1037 37.9277 21.1066 37.9099 21.1091 37.8942C21.1136 37.8656 21.1172 37.8436 21.1295 37.829C22.1779 36.5847 22.6189 35.0951 22.706 33.5188C22.7542 32.644 23.0082 32.0911 23.7822 31.5959C25.3754 30.5764 26.4752 29.1139 26.8794 27.2199C27.3773 24.8861 26.4232 22.6209 24.4029 21.2374C23.4238 20.5672 22.3344 20.1799 21.1718 19.9847ZM24.4627 37.5029C24.4125 37.4744 24.3606 37.4449 24.3058 37.4149C24.5387 37.3065 24.7686 37.199 24.9964 37.0926L24.9976 37.092C25.7805 36.726 26.5377 36.372 27.302 36.0339C27.4168 35.9831 27.6205 36.0394 27.7426 36.1136C32.5239 39.0212 37.5855 41.3386 42.8203 43.283C47.793 45.1304 52.9168 46.4551 58.0814 47.6298C63.5986 48.8849 69.1567 49.9239 74.7488 50.7764C79.674 51.5274 84.6243 52.0399 89.5998 52.3225C96.7435 52.7275 103.887 52.6457 111.029 52.3186C115.103 52.1321 119.179 51.9324 123.243 51.6011C127.444 51.2591 131.639 50.8112 135.823 50.3025C144.392 49.2611 152.863 47.6615 161.203 45.4289C164.073 44.6608 166.918 43.795 169.762 42.9293L169.762 42.9293L169.763 42.9291L169.763 42.9289L169.764 42.9287L169.764 42.9285C170.817 42.6082 171.869 42.2879 172.923 41.9726C173.255 41.8731 173.507 41.8783 173.809 42.069C174.239 42.3402 174.685 42.5858 175.148 42.8404C175.339 42.9458 175.534 43.0527 175.731 43.1637C175.68 43.1827 175.633 43.2008 175.589 43.2179L175.589 43.2179C175.5 43.2522 175.422 43.2827 175.342 43.3091C166.277 46.3155 157.044 48.6775 147.651 50.3763C142.974 51.2222 138.273 51.9602 133.563 52.5925C129.647 53.1179 125.707 53.4704 121.769 53.8062C113.757 54.4903 105.726 54.7332 97.6896 54.5372C93.4752 54.4342 89.263 54.175 85.0555 53.8959C80.3485 53.5838 75.6727 52.9634 71.017 52.2048C62.4117 50.8025 53.9659 48.7381 45.6829 46.0069C38.541 43.6526 31.5847 40.8292 24.7641 37.6637C24.6635 37.6171 24.5669 37.5622 24.463 37.5031L24.4627 37.5029ZM200.427 28.9479C200.334 29.9668 200.02 30.8948 199.283 31.7226C199.247 31.5382 199.219 31.358 199.193 31.1828L199.193 31.1827L199.193 31.1825L199.193 31.1824C199.137 30.8127 199.084 30.4658 198.954 30.1505C198.555 29.179 198.116 28.2169 197.607 27.2989C196.676 25.621 195.497 24.1338 194.003 22.9114C193.284 22.324 192.461 21.9436 191.63 21.5596L191.4 21.4531C190.197 20.894 189.007 20.305 187.817 19.7161C187.231 19.4261 186.646 19.1361 186.058 18.8496C181.019 16.3923 175.744 14.5763 170.36 13.0571C164.164 11.3086 157.872 9.99359 151.522 8.949C146.128 8.06205 140.709 7.37829 135.269 6.85704C123.569 5.73659 111.842 5.34096 100.096 5.60959C95.2409 5.72059 90.3853 5.88413 85.5374 6.15485C80.9955 6.40852 76.4551 6.753 71.9291 7.20779C67.0049 7.70225 62.0869 8.29205 57.186 8.98067C49.9219 10.0006 42.7082 11.3225 35.6176 13.2335C31.8815 14.2404 28.327 15.7565 24.7745 17.2718L24.0296 17.5893C22.2459 18.3482 20.4442 19.0696 18.6252 19.7383C18.191 19.8979 17.7309 19.9839 17.27 20.0701C16.938 20.1321 16.6056 20.1942 16.2823 20.284C13.9338 20.9357 12.1383 22.4379 10.5406 24.1916C8.52348 26.405 7.21098 29.005 6.6281 31.9463C6.06049 34.8108 7.21757 37.3843 9.64793 38.7866C10.6017 39.3371 11.6727 39.5323 12.7434 39.6892C14.6683 39.9711 16.5862 39.9784 18.4795 39.4478C18.5043 39.4407 18.5313 39.4423 18.564 39.4442C18.5812 39.4453 18.5999 39.4464 18.6207 39.4464C18.6103 39.4628 18.6019 39.4786 18.5943 39.4931C18.5795 39.5211 18.5675 39.5439 18.5485 39.5556C18.0782 39.8474 17.6084 40.1399 17.1386 40.4325C15.7956 41.2688 14.4527 42.1051 13.0976 42.9215C12.104 43.52 10.984 43.7465 9.84118 43.8391C8.0433 43.9845 6.26415 43.8867 4.53392 43.3241C2.21528 42.57 0.958982 40.9123 0.740405 38.4731C0.543689 36.2778 1.15709 34.2648 1.96374 32.2797C3.19471 29.2493 5.16572 26.7397 7.41394 24.4153C10.5039 21.2203 14.16 18.9008 18.2158 17.1335C24.2572 14.5015 30.4974 12.4791 36.8566 10.8016C43.6175 9.01825 50.4531 7.5742 57.3664 6.54457C62.4665 5.78496 67.5815 5.09565 72.7077 4.54099C85.0441 3.2055 97.4242 2.7956 109.825 3.11085C114.929 3.24064 120.034 3.42472 125.129 3.73893C129.876 4.03157 134.616 4.48045 139.35 4.94915C146.1 5.61725 152.807 6.60998 159.471 7.87936C167.185 9.34916 174.806 11.1826 182.191 13.8978C186.391 15.442 190.471 17.2438 194.179 19.7965C195.938 21.0074 197.555 22.3787 198.832 24.113C199.891 25.549 200.597 27.1037 200.427 28.9479ZM168.902 34.5902C169.283 37.298 170.523 39.4937 172.683 41.2547C172.509 41.3102 172.342 41.3638 172.179 41.416L172.178 41.4161L172.178 41.4162L172.177 41.4164L172.176 41.4168C171.779 41.5437 171.409 41.6621 171.038 41.7774C163.14 44.2312 155.129 46.2324 146.978 47.6267C142.033 48.4722 137.068 49.2245 132.094 49.8724C127.488 50.4716 122.863 50.9518 118.236 51.3485C110.168 52.0403 102.084 52.2442 93.9887 51.9115C88.7325 51.6954 83.4932 51.2733 78.2741 50.6195C69.6833 49.5433 61.1675 48.0588 52.8009 45.7901C45.4227 43.7893 38.2683 41.1991 31.4962 37.6112C30.7539 37.218 30.0225 36.8036 29.2911 36.3893L29.2908 36.3892L29.2905 36.3889L29.2899 36.3886C28.9836 36.2151 28.6773 36.0416 28.3702 35.8696C28.2905 35.8253 28.2148 35.7732 28.1649 35.7388C28.1485 35.7275 28.135 35.7182 28.125 35.7117C28.5007 35.4513 28.8861 35.2017 29.2716 34.9521C30.1355 34.3926 30.9995 33.8331 31.7547 33.1524C33.0806 31.9571 34.3019 30.642 35.5205 29.3296C35.7295 29.1045 35.9384 28.8796 36.1478 28.6553C40.1512 24.3659 42.7738 19.2609 44.8006 13.8094C44.8597 13.6508 44.9184 13.4921 44.9771 13.3333L44.9771 13.3332L44.9772 13.3331L44.9772 13.333L44.9772 13.3329C45.1738 12.8014 45.3704 12.2699 45.5795 11.7435C45.6274 11.6228 45.7527 11.4752 45.8664 11.4491C46.3649 11.3367 46.8673 11.2418 47.408 11.1397L47.4088 11.1396L47.4119 11.139L47.4142 11.1385C47.6008 11.1033 47.7922 11.0672 47.9894 11.0291C47.8779 11.3528 47.7728 11.6701 47.6694 11.9822L47.6693 11.9826C47.4487 12.6486 47.2359 13.2906 46.9867 13.9179C46.2986 15.6491 45.601 17.3766 44.9034 19.1042L44.9022 19.107L44.9009 19.1101L44.9002 19.1119L44.8996 19.1135L44.8991 19.1148C44.2148 20.8092 43.5306 22.5036 42.8553 24.2013C42.1676 25.9304 41.4921 27.6671 41.1768 29.5162C41.0581 30.2093 41.2156 30.8523 41.5806 31.4307C42.0917 32.2404 42.8955 32.2922 43.724 32.1374C44.9849 31.9018 46.085 31.2723 47.1796 30.6397C47.2603 30.5933 47.3411 30.5471 47.4283 30.4971L47.4352 30.4932L47.4358 30.4929L47.4398 30.4906L47.5925 30.4031C47.5782 30.4642 47.5568 30.5282 47.5364 30.5891L47.5364 30.5892C47.4941 30.7155 47.4564 30.8283 47.4957 30.8736C47.6106 31.0058 47.8114 31.0886 47.9912 31.1335C48.6146 31.2887 48.9293 31.1485 49.2787 30.5969C49.5604 30.1524 49.8411 29.7073 50.1218 29.2622C50.7751 28.2264 51.4283 27.1907 52.0935 26.1625C52.6174 25.3528 53.3876 24.8792 54.3295 24.708C54.5391 24.6697 54.7712 24.7122 54.9849 24.7556C55.2823 24.8162 55.4134 25.0354 55.3218 25.3173C55.2066 25.6711 55.0699 26.025 54.8899 26.3493C54.5817 26.9032 54.2658 27.4528 53.9499 28.0024L53.9493 28.0036L53.9487 28.0044C53.6419 28.5383 53.3351 29.0721 53.0354 29.6098C52.9435 29.7747 52.8508 30.0931 52.9254 30.1637C53.058 30.2897 53.3279 30.3454 53.5229 30.3151C54.0662 30.2305 54.4947 29.9609 54.7535 29.4337C55.1375 28.6514 55.5381 27.8775 55.9387 27.1036C56.0361 26.9153 56.1336 26.727 56.2308 26.5386C56.7339 25.564 57.5513 24.9759 58.5876 24.7031C59.3329 24.5065 59.8651 24.803 59.5889 25.7251C59.3126 26.6466 59.0646 27.5766 58.8167 28.5068C58.7103 28.9057 58.6039 29.3047 58.4953 29.703C58.3461 30.2514 58.1956 30.8259 58.725 31.2434C59.2943 31.6927 59.9286 31.5483 60.4823 31.2128C61.0234 30.8852 61.5436 30.5225 62.0637 30.1599L62.0639 30.1598C62.2844 30.0061 62.5049 29.8523 62.727 29.7013L63.4359 29.2193C63.4359 29.2966 63.4351 29.3673 63.4344 29.4336C63.433 29.5641 63.4318 29.6775 63.4369 29.7904C63.4733 30.5827 64.0704 31.1669 64.857 31.186C65.5765 31.2038 66.2246 30.9491 66.8269 30.6004C67.3985 30.2693 67.9553 29.9122 68.5121 29.5551C68.7377 29.4103 68.9634 29.2656 69.19 29.1226C69.2803 29.0656 69.3688 29.0058 69.433 28.9625C69.458 28.9456 69.4794 28.9312 69.4956 28.9204C69.5556 29.0702 69.6087 29.2213 69.6612 29.3709L69.6615 29.3718L69.6618 29.3726L69.6622 29.3737L69.6622 29.3739C69.7775 29.7025 69.8901 30.0232 70.0664 30.3036C70.5583 31.0865 71.3053 31.2949 72.1172 30.861C72.8506 30.4694 73.5642 30.0408 74.2778 29.6122C74.5749 29.4337 74.8721 29.2553 75.1707 29.0795C75.2641 29.0244 75.3555 28.966 75.4371 28.9139L75.4375 28.9137L75.439 28.9128L75.4405 28.9118C75.4701 28.8929 75.4983 28.8749 75.5249 28.8582C75.5249 28.9633 75.523 29.0672 75.5212 29.1701V29.1705V29.1709V29.1713V29.1717C75.5172 29.3929 75.5134 29.6095 75.528 29.8248C75.5998 30.8757 76.2844 31.4056 77.2898 31.1196C77.8038 30.9732 78.2977 30.751 78.7898 30.5296L78.7904 30.5293C78.9054 30.4776 79.0202 30.4259 79.1352 30.3753C79.4667 30.2294 79.7909 30.0667 80.1212 29.9009C80.2676 29.8273 80.4153 29.7532 80.5653 29.6797C80.5779 29.8085 80.587 29.9331 80.5958 30.0543L80.5958 30.0545L80.5958 30.0546C80.6144 30.3106 80.6319 30.5518 80.6795 30.7869C80.8301 31.535 81.2606 31.8593 82.0208 31.7664C82.287 31.7344 82.547 31.647 82.8065 31.5597C82.9025 31.5275 82.9985 31.4952 83.0946 31.4658C83.1785 31.4401 83.2595 31.4047 83.3613 31.3602C83.4151 31.3367 83.4748 31.3106 83.5439 31.2821C83.5313 31.3567 83.5217 31.423 83.5129 31.4836L83.5129 31.4837L83.5129 31.4838C83.4958 31.6013 83.482 31.697 83.4554 31.7891C83.1501 32.8479 82.639 33.6917 81.5854 34.2391C80.7729 34.6614 80.0501 35.277 79.3422 35.8799L79.1862 36.0127C78.7026 36.4232 78.3983 36.996 78.4698 37.6763C78.6165 39.0671 80.2066 39.7289 81.3876 38.8667C81.7363 38.6119 82.0732 38.2636 82.2626 37.8823C82.8045 36.7914 83.2913 35.671 83.7548 34.5435C84.0734 33.7684 84.3635 32.9813 84.6535 32.1943L84.6536 32.1942L84.6536 32.1941L84.6536 32.1941L84.6537 32.194L84.6543 32.1923L84.6549 32.1908C84.7677 31.8845 84.8806 31.5782 84.9952 31.2727C85.1315 30.9087 85.3747 30.6658 85.7532 30.5667C85.7609 30.5696 85.7699 30.5717 85.7789 30.5739C85.798 30.5784 85.8172 30.583 85.824 30.5948C86.3084 31.4428 86.7972 31.6168 87.726 31.2932C89.0315 30.8384 89.6425 29.8499 89.8295 28.5446C89.8954 28.0846 89.7771 27.6646 89.3722 27.3925C89.6803 27.344 89.9877 27.299 90.2944 27.2542C90.9922 27.1522 91.6856 27.0509 92.3706 26.9092C93.0489 26.7686 93.719 26.5872 94.398 26.4034L94.398 26.4034C94.6938 26.3233 94.9913 26.2427 95.2919 26.1649C95.2787 26.1977 95.2647 26.233 95.25 26.2702C95.2134 26.3628 95.1724 26.4665 95.1281 26.5685C95.0419 26.7671 94.9539 26.965 94.8659 27.1631C94.3893 28.2355 93.9119 29.3095 93.723 30.48C92.8164 36.0941 96.8098 42.2423 103.247 42.2812C103.453 42.2824 103.659 42.2228 103.89 42.1558L103.89 42.1558L103.89 42.1557L103.89 42.1557C104.007 42.122 104.13 42.0864 104.263 42.0558C103.889 41.9889 103.524 41.9325 103.168 41.8773L103.168 41.8773C102.375 41.7547 101.623 41.6382 100.897 41.427C99.9507 41.1517 99.0028 40.7617 98.1681 40.2408C95.9816 38.8764 94.922 36.7945 94.7652 34.2526C94.5775 31.2111 95.5656 28.4768 97.0606 25.8942C97.3805 25.342 97.7253 24.7995 98.1084 24.2901C98.5781 23.6648 98.1001 22.9782 97.4724 22.8265C97.2174 22.7649 97.0811 22.8951 97.0023 23.1192C96.9544 23.2559 96.9044 23.392 96.8544 23.5281L96.8543 23.5283C96.7414 23.8356 96.6284 24.143 96.5395 24.4574C96.4257 24.8618 96.1887 25.1262 95.8338 25.3333C94.335 26.2077 92.6995 26.6649 91.0015 26.9082C90.413 26.9921 89.8159 27.0189 89.2196 27.0457C89.0672 27.0525 88.9148 27.0594 88.7627 27.0672C88.6094 27.075 88.4548 27.0566 88.2727 27.0348C88.181 27.0239 88.0823 27.0121 87.9734 27.0025C88.0401 26.8337 88.1017 26.6697 88.1617 26.5099L88.1618 26.5098C88.2914 26.1648 88.4136 25.8395 88.5642 25.5281C88.7462 25.1524 88.9487 24.7866 89.1512 24.4207L89.1512 24.4205L89.1513 24.4204L89.1514 24.4203L89.1514 24.4202C89.2719 24.2025 89.3924 23.9848 89.5086 23.765C89.7209 23.3631 89.5901 23.1456 89.136 23.1787C88.6162 23.2166 88.1892 23.3822 87.9706 23.948C87.7408 24.5434 87.4937 25.132 87.2466 25.7206L87.2466 25.7207L87.2465 25.7209L87.2464 25.7211L87.2464 25.7213C86.9881 26.3365 86.73 26.9515 86.4915 27.5742C86.2779 28.1323 86.1014 28.7046 85.9214 29.2882L85.9214 29.2884C85.8391 29.555 85.7562 29.824 85.6686 30.0952L85.617 30.0955C85.5557 30.0961 85.465 30.0969 85.3744 30.0948C84.4581 30.0736 83.614 30.2392 82.9509 30.955C82.8066 31.1112 82.5978 31.2313 82.3955 31.304C81.925 31.4738 81.6475 31.2532 81.7214 30.7584C81.7762 30.3902 81.8452 30.005 82.0066 29.6759C82.6048 28.4537 83.2226 27.2412 83.8403 26.0287C84.0225 25.6711 84.2046 25.3135 84.3863 24.9557C84.4403 24.8494 84.5 24.7462 84.567 24.6305L84.5671 24.6302C84.5998 24.5738 84.6342 24.5143 84.6704 24.4501C84.1569 24.1711 83.6528 24.1874 83.1539 24.2981C83.0491 24.3214 82.9607 24.5117 82.9031 24.6422C82.7774 24.9253 82.657 25.2107 82.5367 25.4962C82.3442 25.9524 82.1519 26.4085 81.9382 26.8546C81.4396 27.896 80.6743 28.7144 79.6938 29.3168L79.5519 29.4042C78.9853 29.7533 78.4149 30.1047 77.8116 30.3774C77.0123 30.7389 76.5886 30.4097 76.7 29.5433C76.7524 29.1369 76.8832 28.7284 77.0462 28.3501C77.4579 27.3965 77.8841 26.4495 78.3102 25.5024L78.3104 25.502C78.4883 25.1067 78.6662 24.7113 78.8431 24.3155C78.8776 24.238 78.9077 24.1584 78.9381 24.0779L78.9381 24.0778C78.9517 24.0419 78.9653 24.0058 78.9794 23.9696C78.0253 23.7692 77.3897 24.0823 77.0404 24.9376C76.8269 25.4607 76.6197 25.9864 76.4125 26.512L76.4125 26.5122C76.2482 26.9289 76.084 27.3456 75.9166 27.761C75.8725 27.871 75.8028 27.9924 75.7095 28.0571C75.4537 28.2345 75.1986 28.4131 74.9435 28.5916C74.0953 29.1851 73.2468 29.7788 72.3736 30.3328C71.3827 30.9616 70.8838 30.6634 70.8449 29.4921C70.8057 28.3185 71.0854 27.2356 71.7439 26.2547C71.9652 25.9248 72.1773 25.5889 72.3976 25.24C72.4998 25.0782 72.6037 24.9136 72.7111 24.7456C72.1921 24.4585 71.6845 24.4352 71.1672 24.5803C71.0756 24.6057 70.9979 24.7483 70.9518 24.8534C70.8495 25.0865 70.757 25.3238 70.6647 25.5611L70.6646 25.5613C70.631 25.6474 70.5975 25.7335 70.5635 25.8194C69.6958 28.014 68.002 29.3617 65.9505 30.3419C65.8513 30.3888 65.7438 30.4219 65.6376 30.4522C65.0162 30.6279 64.6519 30.3815 64.7116 29.7482C64.7546 29.2865 64.8726 28.8126 65.0558 28.387C65.4815 27.3966 65.9298 26.416 66.3781 25.4355L66.3788 25.434L66.3794 25.4327C66.566 25.0246 66.7526 24.6164 66.9376 24.2076C66.9802 24.1135 67.0182 24.0172 67.057 23.919C67.0741 23.8755 67.0914 23.8317 67.1093 23.7876C66.0612 23.6296 65.5228 23.9084 65.1435 24.8151C64.9283 25.3301 64.7171 25.8468 64.5059 26.3636L64.5057 26.364L64.5055 26.3644L64.5054 26.3647L64.5053 26.365C64.265 26.9529 64.0247 27.5409 63.7783 28.1264C63.7176 28.2701 63.5954 28.402 63.4726 28.5039L63.3343 28.6187C62.5894 29.2365 61.844 29.8547 61.0808 30.4494C60.8116 30.6592 60.4976 30.8259 60.1808 30.9543C59.854 31.0869 59.6583 30.9386 59.676 30.5851C59.6899 30.3116 59.7409 30.0284 59.8356 29.7723C59.9583 29.4407 60.0917 29.1128 60.225 28.785L60.2251 28.785C60.4321 28.276 60.6391 27.7672 60.806 27.2453C61.028 26.5504 61.1862 25.8239 61.2737 25.0991C61.3562 24.4188 60.968 24.0468 60.2727 23.9898C59.387 23.9171 58.5727 24.1892 57.7803 24.5361C57.4956 24.6608 57.2199 24.8058 56.9441 24.9509L56.9432 24.9514L56.9431 24.9515C56.8168 25.0179 56.6904 25.0843 56.5632 25.1488C56.1784 24.0956 55.7128 23.8436 54.5412 24.1189C54.1607 24.2083 53.7888 24.3341 53.3966 24.4667C53.2134 24.5286 53.0257 24.5921 52.8307 24.654C53.2327 23.9163 53.6195 23.2073 53.9976 22.5142L54.002 22.506L54.2425 22.0652C54.2227 22.04 54.2086 22.019 54.1975 22.0026L54.1975 22.0025C54.1805 21.9772 54.1707 21.9626 54.1585 21.9601C53.4629 21.8261 52.082 22.521 51.7524 23.1369C50.6904 25.12 49.6218 27.0995 48.5369 29.0701C48.4103 29.3004 48.1969 29.529 47.9665 29.6477C46.8844 30.2062 45.7894 30.742 44.682 31.249C44.3891 31.3833 44.0387 31.4247 43.7116 31.4407C43.1266 31.4693 42.7536 31.1885 42.7221 30.6088C42.6915 30.0489 42.686 29.4434 42.8633 28.9243C43.3885 27.3863 43.9808 25.8703 44.5726 24.3553L44.7052 24.0159L44.9581 23.3677L44.9591 23.365C46.1161 20.3993 47.2731 17.4332 48.4658 14.4816C48.884 13.4467 49.375 12.4406 49.8653 11.4358L49.8654 11.4356C49.9477 11.2668 50.0301 11.0981 50.112 10.9293C50.1911 10.7661 50.416 10.6025 50.596 10.5712C56.2402 9.5917 61.9069 8.76076 67.6079 8.20714C72.4947 7.73287 77.387 7.29826 82.2841 6.95482C91.8134 6.28708 101.359 6.0783 110.908 6.25019C116.137 6.34414 121.365 6.56962 126.59 6.81842C128.812 6.92432 131.03 7.10379 133.269 7.28495L133.269 7.28495C134.282 7.36689 135.298 7.44917 136.322 7.52513C136.289 7.61947 136.258 7.70743 136.229 7.79102C136.169 7.96581 136.115 8.1215 136.059 8.27639C134.218 13.3476 132.212 18.3461 129.595 23.0764C126.715 28.283 123.071 32.8427 118.334 36.4821C115.728 38.4849 112.826 39.9558 109.841 41.2836C109.583 41.3984 109.329 41.522 109.103 41.7228C109.265 41.6718 109.427 41.6213 109.588 41.5708L109.589 41.5708C109.938 41.4618 110.287 41.3529 110.635 41.2387C114.924 39.8319 118.633 37.4644 121.999 34.4795C126.192 30.7608 129.375 26.2669 132.136 21.4392C134.568 17.1853 136.564 12.7258 138.289 8.14173C138.397 7.85291 138.529 7.75932 138.826 7.80455C139.178 7.85806 139.533 7.89589 139.906 7.93565L139.906 7.9357C140.069 7.95306 140.235 7.97079 140.406 7.99036C140.385 8.0427 140.365 8.09273 140.345 8.14109L140.345 8.14112L140.345 8.14115L140.345 8.14132L140.345 8.14139C140.306 8.23921 140.27 8.33028 140.231 8.4201C139.665 9.72476 139.096 11.0276 138.526 12.3304L138.526 12.3305L138.526 12.3308L138.526 12.3309L138.526 12.3312C137.238 15.2785 135.949 18.2257 134.712 21.1942C133.155 24.9282 131.91 28.7764 130.954 32.7108C130.575 34.2697 130.597 35.8422 131.237 37.3401C132.1 39.3625 133.635 40.4791 135.848 40.6211C139.126 40.8316 141.964 39.6788 144.571 37.8033C146.515 36.4048 148.162 34.6888 149.811 32.9705L149.811 32.9705C150.019 32.7529 150.228 32.5353 150.438 32.3183C152.802 29.8686 154.835 27.1608 156.804 24.3962C156.916 24.2382 157.031 24.0764 157.174 23.9494C157.226 23.9034 157.308 23.8914 157.391 23.8794C157.428 23.8739 157.465 23.8685 157.499 23.86C157.498 23.8923 157.5 23.9254 157.501 23.9585V23.9585C157.505 24.0313 157.508 24.1042 157.486 24.1683C157.449 24.2744 157.396 24.3749 157.344 24.4754L157.344 24.4754C157.319 24.5229 157.294 24.5704 157.271 24.6185C156.732 25.7334 156.222 26.8608 156.003 28.0916C155.863 28.8755 155.897 29.6425 156.307 30.3586C156.636 30.9338 157.276 31.2859 157.918 31.1262C158.35 31.0187 158.767 30.8468 159.183 30.6755L159.183 30.6755C159.293 30.6305 159.402 30.5856 159.511 30.542C159.98 30.3546 160.445 30.159 160.942 29.9503L160.942 29.9502L160.942 29.9502L160.943 29.9499C161.165 29.8567 161.393 29.7608 161.631 29.662C161.61 29.7712 161.592 29.8663 161.577 29.9521C161.547 30.1154 161.523 30.245 161.495 30.3739C161.339 31.09 161.522 31.7024 162.079 32.1781C162.618 32.6388 163.231 32.6033 163.841 32.3517C164.132 32.2317 164.422 32.0782 164.668 31.883C165.569 31.1686 165.726 30.3081 165.163 29.3015C165.072 29.1397 164.969 28.9849 164.854 28.8117C164.798 28.7267 164.738 28.6373 164.676 28.5405C166.457 28.4571 168.025 27.7624 169.681 27.0282L169.681 27.0282C169.821 26.9658 169.963 26.9032 170.105 26.8407C169 29.3982 168.525 31.9209 168.902 34.5902ZM196.042 34.573C195.848 34.6014 195.654 34.6301 195.432 34.6629C195.477 34.5326 195.521 34.4097 195.564 34.2912C195.654 34.0429 195.736 33.8144 195.797 33.58C196.016 32.7439 195.946 31.946 195.372 31.257C194.75 30.5106 193.947 30.0691 192.985 29.9455C192.056 29.8262 191.431 30.2949 191.243 31.2167C191.104 31.8962 191.327 32.4846 191.724 33.0111C192.347 33.834 193.204 34.2965 194.194 34.5185C194.444 34.5748 194.699 34.61 194.961 34.6462C195.084 34.6632 195.209 34.6804 195.335 34.7001L195.323 34.724L195.32 34.7299C195.244 34.8848 195.181 35.0114 195.101 35.1741H195.788C195.767 35.2184 195.748 35.2588 195.731 35.2965C195.695 35.3744 195.665 35.4401 195.628 35.5025C194.158 38.0295 191.023 39.4422 188.125 38.8079C184.316 37.9738 181.687 35.7214 180.282 32.057C179.561 30.1749 179.128 28.2572 179.523 26.2255C180.079 23.3711 182.735 20.958 185.622 20.7057C185.995 20.6731 186.368 20.6456 186.741 20.6181L186.741 20.6181C186.909 20.6057 187.078 20.5933 187.246 20.5804L187.263 20.4656C187.122 20.3902 186.981 20.3142 186.84 20.2382C186.523 20.0674 186.206 19.8967 185.885 19.7324C179.822 16.6223 173.414 14.4507 166.847 12.7196C159.085 10.6732 151.193 9.32063 143.238 8.31362C143.017 8.28578 142.902 8.3251 142.792 8.54815C142.514 9.11007 142.238 9.67243 141.961 10.2348L141.961 10.2365L141.96 10.2376L141.96 10.2383C140.907 12.3792 139.854 14.5203 138.757 16.638C136.271 21.4378 134.13 26.3695 132.857 31.6457C132.81 31.8388 132.761 32.0315 132.713 32.2243C132.456 33.2424 132.2 34.2616 132.233 35.3327C132.301 37.5106 133.445 39.1736 135.4 39.7484C136.093 39.952 136.846 40.0421 137.571 40.0323C139.844 40.0021 141.829 39.1113 143.635 37.7908C146.805 35.4737 149.521 32.6732 152.099 29.7291C152.132 29.6911 152.158 29.6461 152.185 29.5984C152.198 29.5759 152.211 29.5527 152.225 29.5294C152.205 29.5249 152.189 29.5196 152.175 29.5153L152.175 29.5153C152.151 29.5078 152.135 29.5028 152.123 29.5078C152.034 29.5468 151.946 29.5875 151.863 29.6355C150.925 30.1794 149.906 30.4856 148.842 30.6369C148.164 30.734 147.465 30.7754 146.877 30.3415C146.63 30.1588 146.452 30.194 146.202 30.2758C145.912 30.3704 145.623 30.4671 145.333 30.5639L145.333 30.5639L145.333 30.5639L145.333 30.5639L145.333 30.564C144.361 30.8891 143.389 31.2143 142.397 31.4578C141.533 31.6697 140.619 31.7546 139.729 31.7522C138.87 31.7504 138.515 31.2034 138.712 30.3718C138.807 29.9702 138.96 29.5757 139.14 29.2033C139.556 28.3388 139.985 27.4796 140.413 26.6205C140.604 26.2365 140.796 25.8524 140.986 25.4679C141.025 25.3884 141.061 25.3072 141.102 25.2167V25.2167C141.122 25.1715 141.143 25.1239 141.166 25.073C141.044 25.058 140.926 25.046 140.811 25.0343C140.564 25.0093 140.332 24.9858 140.105 24.9376C139.463 24.8012 139.305 24.6032 139.219 23.9644C139.208 23.8803 139.17 23.7997 139.124 23.6987L139.124 23.6987L139.124 23.6987L139.124 23.6986L139.124 23.6985C139.099 23.6453 139.072 23.5864 139.045 23.5183C138.862 23.7685 138.684 24.0124 138.509 24.2517L138.509 24.252C138.055 24.8733 137.623 25.4633 137.188 26.0501C136.955 26.3636 136.578 26.4854 136.361 26.3027C136.038 26.0313 136.227 25.7547 136.405 25.4965C137.213 24.3315 138.022 23.1675 138.831 22.0043C138.846 21.983 138.861 21.9597 138.875 21.9362L138.875 21.9362L138.875 21.9362L138.875 21.9361C138.923 21.8594 138.973 21.7796 139.042 21.7527C139.07 21.7415 139.099 21.7295 139.129 21.7171L139.129 21.7171L139.129 21.717C139.318 21.6391 139.534 21.55 139.676 21.61C139.828 21.6748 139.954 21.9688 139.966 22.1692C139.98 22.3966 139.956 22.6257 139.933 22.8552V22.8553C139.917 23.0146 139.9 23.1741 139.896 23.3335C139.877 24.1244 140.485 24.5222 141.178 24.1467C141.473 23.9866 141.734 23.7347 141.961 23.48C142.117 23.3049 142.252 23.1115 142.388 22.918C142.492 22.7692 142.596 22.6204 142.709 22.4796C143.072 22.0293 143.403 21.9604 143.921 22.1901C144.345 22.3784 144.373 22.473 144.11 22.8599C142.607 25.0754 141.379 27.4381 140.355 29.91C140.055 30.6345 140.308 31.0528 141.077 31.0194C142.883 30.9411 144.592 30.5305 146.025 29.338C146.124 29.2562 146.206 29.0937 146.21 28.9667C146.268 26.8476 147.252 25.1979 148.797 23.8426C149.433 23.2841 150.203 22.949 151.026 22.7729C151.356 22.7023 151.72 22.6884 152.051 22.7489C152.643 22.8575 152.911 23.3683 152.736 23.9445C152.684 24.1168 152.628 24.2929 152.539 24.4474C151.3 26.6023 149.738 28.4368 147.465 29.6038C147.582 29.9901 147.883 30.217 148.3 30.2514C148.6 30.2758 148.914 30.2604 149.207 30.1989C150.179 29.9944 151.051 29.5504 151.924 29.1058C152.15 28.9906 152.376 28.8753 152.604 28.7642C153.053 28.5457 153.366 28.2381 153.64 27.8595C153.877 27.533 154.119 27.2097 154.361 26.8864L154.362 26.8863C154.97 26.0741 155.579 25.2616 156.104 24.3979C156.723 23.3787 157.685 23.1162 158.657 22.8506L158.657 22.8506C158.867 22.7933 159.077 22.7359 159.285 22.6706C159.302 22.6652 159.326 22.6779 159.363 22.698C159.385 22.7102 159.412 22.725 159.447 22.7402C159.365 22.9132 159.284 23.0854 159.203 23.2572C159.018 23.6488 158.835 24.0381 158.655 24.4293C158.536 24.6868 158.416 24.9436 158.295 25.2004L158.295 25.2007L158.295 25.2007L158.295 25.2008L158.295 25.2008L158.295 25.2008C157.967 25.8987 157.64 26.5967 157.353 27.3111C157.048 28.0704 156.986 28.8797 157.197 29.688C157.353 30.2827 157.65 30.5134 158.257 30.4292C158.607 30.3801 158.982 30.2914 159.277 30.1077C160.078 29.607 160.857 29.07 161.636 28.5333C161.769 28.4412 161.903 28.3491 162.037 28.2572C162.13 28.1928 162.193 28.0655 162.239 27.9545C162.371 27.6357 162.504 27.3174 162.637 26.999L162.637 26.9989L162.637 26.9988L162.637 26.9986L162.637 26.9983V26.9983L162.637 26.9983V26.9983L162.637 26.9983C163.05 26.0098 163.463 25.0211 163.841 24.019C164.06 23.4355 164.453 23.1783 165.016 23.1317C165.219 23.1146 165.478 23.1602 165.62 23.2834C165.692 23.3464 165.594 23.6575 165.519 23.8332C165.254 24.4513 164.984 25.0674 164.714 25.6834C164.445 26.2992 164.175 26.9149 163.91 27.5328C163.859 27.6518 163.838 27.7836 163.814 27.9331C163.802 28.0079 163.789 28.0871 163.772 28.1713C163.935 28.1571 164.091 28.1454 164.242 28.1341L164.242 28.1341L164.242 28.1341L164.242 28.1341H164.242C164.564 28.1099 164.865 28.0874 165.162 28.0457C167.092 27.7742 168.75 26.8518 170.356 25.818C170.477 25.74 170.57 25.6029 170.65 25.4759C171.001 24.9136 171.851 24.6005 172.545 24.8134L172.442 25.0187L172.304 25.2922C171.195 27.5161 170.278 29.8057 169.989 32.2995C169.642 35.2892 170.394 37.9275 172.558 40.0842L172.624 40.1495C172.965 40.4904 173.32 40.8452 173.736 41.0627C174.939 41.6907 176.163 42.2899 177.414 42.8143C180.592 44.1477 183.87 45.035 187.362 44.6996C190.017 44.4449 192.438 43.559 194.331 41.6145C196.077 39.8218 197.291 37.6679 198.128 35.3073C198.197 35.1127 198.242 34.9092 198.283 34.7195V34.7195C198.302 34.6349 198.32 34.5531 198.339 34.476L195.897 35.196L195.92 35.0967C195.973 34.8672 196.006 34.7196 196.042 34.573ZM196.047 34.5711C196.191 34.5373 196.337 34.5078 196.483 34.4784L196.483 34.4784C196.81 34.4126 197.136 34.3468 197.445 34.2325C198.556 33.8215 198.567 33.7773 198.523 32.6033C198.513 32.3531 198.5 32.1022 198.469 31.8545C198.083 28.7802 196.581 26.334 194.203 24.4251C191.916 22.5889 189.331 21.505 186.342 21.6629C184.681 21.7506 183.186 22.3192 182.195 23.717C180.927 25.5069 180.372 27.5376 180.566 29.7437C180.684 31.0857 181.25 32.2786 181.816 33.4718L181.907 33.6625C182.721 35.3825 183.968 36.6254 185.664 37.5204C187.854 38.6746 190.017 38.7831 192.253 37.7772C193.451 37.2385 194.343 36.3582 195.062 35.2144L194.976 35.2009L194.976 35.2008C194.901 35.189 194.853 35.1813 194.804 35.1741C193.796 35.0269 192.814 34.7976 191.964 34.1935C190.996 33.5052 190.513 32.5748 190.601 31.3708C190.698 30.0371 191.618 29.2054 192.945 29.2514C194.818 29.3161 196.605 31.2309 196.473 33.1016C196.449 33.4428 196.327 33.777 196.205 34.1112L196.205 34.1114C196.149 34.2644 196.093 34.4174 196.047 34.5711ZM19.6327 7.60485C19.4775 7.69586 19.3224 7.78687 19.1664 7.87623L19.1861 7.91904L19.2029 7.95626C19.2522 7.94289 19.3018 7.93022 19.3513 7.91756C19.4579 7.89033 19.5644 7.86311 19.6688 7.82891C20.6341 7.5142 21.5989 7.19797 22.5638 6.88173L22.5644 6.88155L22.5649 6.88138L22.5677 6.88047C24.4851 6.25202 26.4027 5.62354 28.3238 5.00692C31.1125 4.11195 33.9221 3.2984 36.8743 3.16444C38.4581 3.09241 40.0041 3.26848 41.4734 3.90874C42.1631 4.20938 42.3536 4.68226 41.9501 5.32774C41.6833 5.75504 41.3412 6.18338 40.9322 6.4628C40.8015 6.55189 40.671 6.64159 40.5402 6.73141C39.5949 7.38071 38.6411 8.0359 37.6091 8.50848C34.1705 10.083 30.701 11.5953 27.2083 13.0463C25.5307 13.7431 23.8339 14.3933 22.137 15.0436L22.1369 15.0437C20.8331 15.5433 19.5292 16.043 18.2338 16.5639C13.3447 18.5295 9.07963 21.4034 5.56574 25.3761C3.4341 27.7857 1.66919 30.3979 0.716469 33.5073C0.174538 35.275 -0.243186 37.0524 0.162392 38.9192C0.689054 41.3442 2.00885 43.0328 4.46974 43.7253C6.22668 44.2194 8.00964 44.376 9.82279 44.2914C11.324 44.2208 12.7725 43.9449 14.0666 43.1292L14.2822 42.9934C15.548 42.1956 16.8144 41.3975 18.0534 40.5595C19.5512 39.5462 21.0712 38.581 22.775 37.9501C22.9454 37.8871 23.19 37.8791 23.3496 37.9539C31.6166 41.8365 40.0804 45.209 48.8152 47.8856C60.1093 51.3464 71.6415 53.5737 83.3985 54.6618C88.2089 55.1072 93.028 55.3845 97.8568 55.4653C105.144 55.5867 112.427 55.4385 119.697 54.8988C123.32 54.6302 126.947 54.3587 130.555 53.937C134.947 53.4238 139.328 52.8058 143.698 52.1332C149.673 51.2128 155.585 49.9601 161.453 48.5021C166.673 47.2053 171.836 45.7118 176.929 43.9758C177.085 43.9226 177.284 43.9073 177.439 43.9539C181.065 45.0399 184.737 45.5667 188.527 45.0416C191.574 44.6196 194.02 43.2253 195.846 40.7401C196.773 39.4784 197.481 38.0949 198.089 36.6585C198.357 36.0264 198.615 35.39 198.873 34.7536L198.873 34.7535L198.873 34.7534L198.873 34.7533L198.873 34.7532C199.325 33.6387 199.776 32.5243 200.279 31.4338C201.371 29.0683 201.228 26.8375 199.815 24.6624C198.74 23.0082 197.359 21.6518 195.813 20.4531C192.729 18.0601 189.278 16.3185 185.702 14.815C179.059 12.0222 172.144 10.1199 165.13 8.55059C163.92 8.27977 162.705 8.02817 161.498 7.77806L161.498 7.77806L161.498 7.77805L161.498 7.77804L161.498 7.77803L161.498 7.778L161.498 7.77797L161.498 7.77797L161.498 7.77796C160.94 7.6624 160.384 7.54715 159.83 7.43049L159.371 5.41779L158.897 3.33738C159.558 3.17326 160.202 2.96133 160.842 2.75057C162.216 2.2982 163.573 1.85118 165.052 1.89367C164.666 1.85988 164.281 1.85522 163.898 1.85058C163.587 1.84682 163.277 1.84307 162.968 1.82373C162.072 1.76736 161.202 1.82965 160.342 2.1021C159.828 2.26495 159.299 2.38813 158.77 2.49182C158.636 2.51757 158.408 2.4452 158.337 2.34081C157.886 1.67237 157.277 1.2047 156.561 0.873091C155.466 0.366804 154.31 0.0936516 153.107 0.0296308C149.442 -0.165234 145.965 0.607598 142.656 2.15256C141.892 2.50952 141.153 2.91874 140.413 3.3281C139.963 3.57675 139.513 3.82546 139.058 4.06254C139.002 4.09173 138.964 4.13926 138.925 4.18697C138.856 4.27122 138.787 4.35605 138.621 4.34161C137.391 4.23506 136.161 4.12311 134.931 4.01115L134.931 4.01112L134.931 4.01108L134.93 4.01105L134.93 4.01101C131.573 3.70547 128.217 3.39992 124.854 3.20411C119.398 2.88642 113.933 2.68773 108.469 2.54715C101.517 2.3683 94.5647 2.47199 87.6205 2.86554C83.826 3.08058 80.0314 3.32277 76.2455 3.65403C72.7653 3.9585 69.2892 4.34265 65.8246 4.7943C63.017 5.16035 60.2178 5.5925 57.4186 6.02466L57.4185 6.02468C56.5457 6.15944 55.6728 6.2942 54.7996 6.42696C54.0245 6.54496 53.2527 6.68517 52.4676 6.8278C52.1067 6.89335 51.743 6.95941 51.3749 7.02407C51.3905 6.96336 51.4056 6.90836 51.4197 6.85701L51.4198 6.85677C51.4471 6.75725 51.4706 6.67142 51.4866 6.58424C51.5219 6.38886 51.5619 6.19374 51.6019 5.99855L51.6022 5.99712L51.6023 5.997C51.6963 5.53882 51.7904 5.08032 51.8225 4.61754C51.9453 2.84919 51.0686 1.56484 49.4678 1.15842C48.964 1.03037 48.4231 0.976439 47.9041 0.999057C46.7414 1.04951 45.5803 1.15063 44.4201 1.25167L44.2521 1.26629C39.6599 1.66437 35.1111 2.34394 30.6334 3.45395C27.182 4.30924 23.8041 5.37854 20.6382 7.03625C20.2973 7.21489 19.965 7.40986 19.6327 7.60485ZM114.893 25.5801C114.929 25.514 114.97 25.4375 115.02 25.3451C114.877 25.329 114.742 25.3127 114.612 25.2971L114.612 25.2971L114.612 25.2971C114.33 25.2631 114.075 25.2324 113.818 25.2135C113.471 25.1874 113.299 25.3583 113.161 25.699L113.132 25.7687C112.698 26.8369 112.262 27.9105 111.724 28.9274C111.058 30.1873 109.888 30.8996 108.623 31.456C108.511 31.5054 108.382 31.5235 108.259 31.5357C107.808 31.5789 107.531 31.3784 107.567 30.9285C107.604 30.4664 107.695 29.9862 107.876 29.5624C108.31 28.5442 108.769 27.5371 109.228 26.5301L109.228 26.5301L109.228 26.53L109.228 26.53L109.228 26.53L109.229 26.5284C109.415 26.1209 109.601 25.7133 109.785 25.3051C109.824 25.2169 109.859 25.1264 109.887 25.0548C109.897 25.0283 109.906 25.0044 109.914 24.9842L109.541 24.8281C109.209 24.6896 108.882 24.5525 108.518 24.4003C108.362 24.7973 108.201 25.1998 108.039 25.6066L108.039 25.607L108.039 25.6072L108.039 25.6075L108.039 25.6077C107.64 26.6069 107.231 27.6323 106.848 28.6674C106.564 29.4337 106.328 30.2235 106.145 31.0197C105.92 31.9919 106.451 32.5706 107.418 32.4025C107.899 32.319 108.384 32.1297 108.808 31.884C109.357 31.566 109.884 31.2111 110.412 30.8562L110.412 30.8562L110.412 30.8562C110.644 30.6997 110.877 30.5432 111.111 30.3899C111.205 30.3293 111.301 30.2733 111.382 30.2258L111.382 30.2257C111.417 30.2056 111.449 30.1871 111.477 30.1703C111.477 30.4222 111.473 30.6723 111.47 30.921V30.9211C111.462 31.4736 111.454 32.0192 111.486 32.5622C111.547 33.5883 112.267 34.1371 113.184 33.8065C113.835 33.5714 114.454 33.2433 115.07 32.9164L115.071 32.916C115.2 32.8477 115.328 32.7795 115.457 32.7122C115.564 32.6564 115.639 32.5394 115.715 32.4223C115.749 32.3683 115.784 32.3144 115.822 32.2664C115.756 32.2673 115.689 32.2671 115.623 32.267H115.623C115.458 32.2665 115.292 32.266 115.128 32.2824C115.071 32.2882 115.016 32.329 114.962 32.37C114.934 32.3905 114.907 32.411 114.879 32.4272C114.763 32.4946 114.647 32.5646 114.532 32.6345L114.532 32.6345C114.267 32.795 114.002 32.9553 113.723 33.0845C113.074 33.3837 112.638 33.1506 112.582 32.4463C112.541 31.9407 112.547 31.4108 112.652 30.9174C113.035 29.1052 113.808 27.445 114.741 25.8562C114.789 25.7756 114.833 25.693 114.893 25.5805L114.893 25.5803L114.893 25.5801ZM118.346 15.5479L118.347 15.5491C118.717 16.0461 119.082 16.5361 119.456 17.0193C119.486 17.0584 119.546 17.0725 119.606 17.087C119.661 17.1 119.717 17.1132 119.754 17.1449C119.822 17.2035 119.892 17.2612 119.962 17.3189C120.208 17.5212 120.455 17.7248 120.64 17.9738C120.821 18.2191 120.638 18.4397 120.322 18.3931C119.841 18.3225 119.485 18.0469 119.235 17.6324C119.135 17.4661 119.037 17.2977 118.94 17.1292L118.94 17.1292L118.94 17.1291L118.94 17.129C118.749 16.7974 118.557 16.4657 118.342 16.1508C117.589 15.0518 117.572 15.0508 116.256 14.9747L116.22 14.9726C115.86 14.9517 115.501 14.9208 115.142 14.8825C115.083 14.8761 115.026 14.8477 114.968 14.8193C114.942 14.8061 114.915 14.7929 114.889 14.7819L114.906 14.6622C114.941 14.6572 114.976 14.651 115.011 14.6449C115.087 14.6315 115.163 14.6182 115.239 14.6163C115.405 14.6124 115.572 14.6071 115.739 14.6019L115.739 14.6019C116.196 14.5874 116.654 14.5729 117.112 14.5867C118.116 14.6175 118.932 14.1456 119.748 13.6732L119.748 13.6732L119.748 13.6732C119.818 13.6326 119.888 13.5921 119.959 13.5519C120.004 13.5259 120.033 13.4728 120.061 13.4189C120.087 13.3715 120.113 13.3236 120.15 13.293C120.425 13.0713 120.704 12.8511 121.002 12.6642C121.073 12.6193 121.268 12.6705 121.329 12.7428C121.388 12.8131 121.397 13.0129 121.34 13.0772C121.307 13.1147 121.274 13.153 121.241 13.1915C121.049 13.414 120.851 13.6443 120.605 13.7746C120.292 13.9401 119.967 14.0844 119.64 14.2297C119.338 14.3643 119.033 14.4998 118.734 14.6539C119.012 14.6414 119.287 14.6719 119.563 14.7023C120.052 14.7563 120.541 14.8103 121.046 14.6264C121.319 14.5266 121.651 14.5721 121.971 14.616L121.971 14.616L121.971 14.616C122.053 14.6272 122.134 14.6383 122.213 14.6469C122.311 14.6573 122.455 14.8296 122.459 14.9329C122.464 15.0349 122.341 15.1862 122.235 15.2416C121.806 15.4674 121.361 15.4528 120.909 15.2837L120.869 15.2688C120.654 15.1884 120.43 15.104 120.207 15.0961C119.696 15.0789 119.183 15.0819 118.65 15.085C118.438 15.0862 118.223 15.0874 118.003 15.0874C118.117 15.2403 118.231 15.3925 118.343 15.5441L118.346 15.5479ZM98.2043 12.4932C98.0736 12.5774 97.943 12.6615 97.8125 12.7459L97.7566 12.6708C97.8603 12.4984 97.9666 12.3274 98.073 12.1564L98.0733 12.1559C98.3308 11.7419 98.5883 11.3279 98.8072 10.8944C98.9289 10.6535 98.9527 10.3569 98.9754 10.0716C98.9792 10.0253 98.9828 9.97918 98.9869 9.93369C98.9952 9.84322 98.8755 9.68351 98.7857 9.65741C98.6976 9.63201 98.5213 9.70682 98.4727 9.78963C98.4544 9.82088 98.4352 9.85278 98.4156 9.88518C98.2957 10.0836 98.1645 10.3007 98.1764 10.5005C98.2066 11.0159 98.0013 11.4367 97.7937 11.8622C97.7673 11.9162 97.741 11.9703 97.715 12.0246C97.3927 12.6983 96.9649 13.2804 96.3307 13.7039C95.8798 14.0055 95.4475 14.3354 95.0155 14.6651L94.8537 14.7885C94.8023 14.8277 94.7719 14.8947 94.7416 14.9616C94.7275 14.9927 94.7134 15.0237 94.6973 15.0519L94.8072 15.1198C94.9224 15.0515 95.041 14.9874 95.1595 14.9232C95.4217 14.7814 95.684 14.6395 95.9095 14.4531C96.6998 13.7992 97.5037 13.6976 98.4106 14.1959C98.7622 14.3892 99.1353 14.5435 99.5081 14.6975L99.5082 14.6976C99.6427 14.7531 99.7771 14.8087 99.9105 14.8661C100.339 15.0505 100.778 15.0596 101.2 14.8623C101.305 14.8129 101.413 14.6681 101.426 14.5564C101.436 14.4725 101.309 14.309 101.218 14.2892C101.154 14.2749 101.089 14.2589 101.023 14.2427L101.023 14.2427C100.736 14.1725 100.44 14.0998 100.175 14.1556C99.8085 14.2328 99.5032 14.1879 99.1756 14.0703C99.0067 14.0097 98.835 13.9569 98.6633 13.904C98.5568 13.8712 98.4503 13.8384 98.3444 13.8038C98.1403 13.7366 97.9368 13.6676 97.7119 13.5914L97.7115 13.5913C97.6031 13.5545 97.4896 13.516 97.3687 13.4753C97.555 13.3507 97.7363 13.2291 97.9139 13.1099C98.4615 12.7425 98.9744 12.3984 99.4921 12.0618C99.5731 12.0091 99.6828 11.9953 99.7869 11.9822L99.787 11.9821C99.8059 11.9798 99.8245 11.9774 99.8428 11.9749C100.349 11.9049 100.718 11.6297 100.954 11.1926C101.015 11.0799 101.015 10.877 100.951 10.7712C100.905 10.6957 100.699 10.6721 100.578 10.6961C100.133 10.7838 99.8019 11.0465 99.5708 11.4366C99.5537 11.4656 99.5385 11.4976 99.5233 11.5297C99.4894 11.6014 99.4554 11.6732 99.3991 11.7114C99.0047 11.978 98.6045 12.2356 98.2043 12.4932ZM155.066 19.2859C154.93 19.8566 154.635 20.3914 154.077 20.7428C153.841 20.8918 153.715 20.7783 153.713 20.5111C153.708 20.0553 154.307 19.1311 154.718 18.9533C155.001 18.8308 155.062 18.9849 155.066 19.2859ZM151.962 18.7056C151.44 19.0695 151.143 19.5838 150.996 20.2488C151.006 20.2669 151.016 20.2921 151.027 20.3193C151.053 20.3866 151.085 20.4657 151.132 20.4764C151.235 20.5004 151.384 20.4663 151.471 20.4005C151.942 20.0477 152.228 19.5664 152.358 18.9975C152.38 18.8976 152.332 18.7431 152.26 18.6732C152.212 18.6273 152.038 18.6527 151.962 18.7056Z" fill="white"/>
</svg>
