<svg width="27" height="33" viewBox="0 0 27 33" fill="none" xmlns="http://www.w3.org/2000/svg">
<path d="M1.10846 29.6246L3.23629 31.7557C3.63484 32.1568 4.28044 32.1646 4.68243 31.7605C5.08442 31.3567 5.08819 30.7047 4.68976 30.304L2.55934 28.1736C1.79748 27.4117 1.91783 26.0038 2.82234 25.0994L4.59979 23.3218L5.07128 23.7934C5.2706 23.9927 5.53339 24.0939 5.79693 24.0939C6.02621 24.0939 6.25613 24.0175 6.44566 23.8627L19.1611 13.4784C19.3364 13.4919 19.5126 13.5008 19.6902 13.5008C21.4853 13.5008 23.173 12.8019 24.4422 11.5325C25.7115 10.2632 26.4107 8.57568 26.4107 6.78045C26.4107 4.98544 25.7116 3.29774 24.4422 2.02841C23.1731 0.759085 21.4854 0.0600433 19.6903 0.0600433C17.8953 0.0600433 16.2076 0.759085 14.9383 2.02831C13.669 3.29763 12.97 4.98533 12.97 6.78034C12.97 6.9579 12.9788 7.13428 12.9924 7.30958L2.60815 20.0248C2.2749 20.4327 2.30496 21.0268 2.67732 21.3992L3.14891 21.8708L1.37146 23.6482C-0.348772 25.3683 -0.466859 28.0492 1.10846 29.6246ZM18.4121 8.05851C16.4301 6.07645 15.8819 3.99291 16.3876 3.48112C16.3881 3.48048 16.3887 3.48004 16.3893 3.4794C17.2711 2.59762 18.4434 2.11202 19.6903 2.11202C20.9372 2.11202 22.1097 2.59773 22.9914 3.4794C23.8732 4.36117 24.3588 5.53353 24.3588 6.78034C24.3588 8.02737 23.8731 9.19973 22.9914 10.0815C22.4826 10.5903 20.3967 10.0429 18.4121 8.05851ZM15.0267 6.97482C15.4931 7.82621 16.1426 8.69118 16.961 9.50949C17.7801 10.3286 18.6454 10.9773 19.4972 11.444C18.5571 11.2811 17.2585 10.9508 16.3892 10.0815C15.5515 9.24358 15.1897 7.91456 15.0267 6.97482ZM4.78436 20.6042L13.6555 9.74146C13.9774 10.3963 14.4073 11.0013 14.9382 11.5325C15.4694 12.0637 16.0745 12.4933 16.7293 12.8153L5.86653 21.6863L4.78436 20.6042Z" fill="#E3BF77"/>
</svg>
