<svg width="44" height="32" viewBox="0 0 44 32" fill="none" xmlns="http://www.w3.org/2000/svg">
<path fill-rule="evenodd" clip-rule="evenodd" d="M2 0C1.44772 0 1 0.447715 1 1V3.26756C0.402199 3.61337 0 4.25972 0 5C0 5.74028 0.402199 6.38663 1 6.73244V10.2676C0.402199 10.6134 0 11.2597 0 12C0 12.7403 0.402199 13.3866 1 13.7324V17.2676C0.402199 17.6134 0 18.2597 0 19C0 19.7403 0.402199 20.3866 1 20.7324V24.2676C0.402199 24.6134 0 25.2597 0 26C0 26.7403 0.402199 27.3866 1 27.7324V31C1 31.5523 1.44772 32 2 32C2.55228 32 3 31.5523 3 31V27.7324C3.13377 27.6551 3.25774 27.5626 3.36961 27.4575C7.22493 28.528 14.3874 30 22 30C29.6126 30 36.7751 28.528 40.6304 27.4575C40.7423 27.5626 40.8662 27.6551 41 27.7324V31C41 31.5523 41.4477 32 42 32C42.5523 32 43 31.5523 43 31V27.7324C43.5978 27.3866 44 26.7403 44 26C44 25.2597 43.5978 24.6134 43 24.2676V20.7324C43.5978 20.3866 44 19.7403 44 19C44 18.2597 43.5978 17.6134 43 17.2676V13.7324C43.5978 13.3866 44 12.7403 44 12C44 11.2597 43.5978 10.6134 43 10.2676V6.73244C43.5978 6.38663 44 5.74028 44 5C44 4.25972 43.5978 3.61337 43 3.26756V1C43 0.447715 42.5523 0 42 0C41.4477 0 41 0.447715 41 1V3.26756C40.5294 3.53982 40.18 3.99835 40.0526 4.54234C36.3448 5.56823 29.3829 7 22 7C14.6171 7 7.6552 5.56823 3.9474 4.54234C3.82005 3.99835 3.47064 3.53982 3 3.26756V1C3 0.447715 2.55228 0 2 0ZM3.9474 25.5423C7.6552 26.5682 14.6171 28 22 28C29.3829 28 36.3448 26.5682 40.0526 25.5423C40.18 24.9983 40.5294 24.5398 41 24.2676V20.7324C40.8662 20.6551 40.7423 20.5626 40.6304 20.4575C36.7751 21.528 29.6126 23 22 23C14.3874 23 7.22493 21.528 3.36961 20.4575C3.25774 20.5626 3.13377 20.6551 3 20.7324V24.2676C3.47064 24.5398 3.82005 24.9983 3.9474 25.5423ZM3 17.2676C3.47064 17.5398 3.82005 17.9983 3.9474 18.5423C7.6552 19.5682 14.6171 21 22 21C29.3829 21 36.3448 19.5682 40.0526 18.5423C40.18 17.9983 40.5294 17.5398 41 17.2676V13.7324C40.8662 13.6551 40.7423 13.5626 40.6304 13.4575C36.7751 14.528 29.6126 16 22 16C14.3874 16 7.22493 14.528 3.36961 13.4575C3.25774 13.5626 3.13377 13.6551 3 13.7324V17.2676ZM3.9474 11.5423C7.6552 12.5682 14.6171 14 22 14C29.3829 14 36.3448 12.5682 40.0526 11.5423C40.18 10.9983 40.5294 10.5398 41 10.2676V6.73244C40.8662 6.65505 40.7423 6.56262 40.6304 6.45746C36.7751 7.52804 29.6126 9 22 9C14.3874 9 7.22493 7.52804 3.36961 6.45746C3.25774 6.56262 3.13377 6.65505 3 6.73244V10.2676C3.47064 10.5398 3.82005 10.9983 3.9474 11.5423Z" fill="#E3BF77"/>
</svg>
