<svg width="42" height="33" viewBox="0 0 42 33" fill="none" xmlns="http://www.w3.org/2000/svg">
<path fill-rule="evenodd" clip-rule="evenodd" d="M41.2581 8.1223L41.2304 29.9532C41.2299 30.3855 41.1304 30.7951 40.9534 31.1605C40.9141 31.2418 40.871 31.3207 40.8243 31.3974C40.7776 31.474 40.7273 31.5481 40.6736 31.6196C40.1639 32.2991 39.3515 32.739 38.4388 32.7378C38.3232 32.7377 38.209 32.7304 38.0971 32.7165C36.8065 32.5565 35.7872 31.5111 35.6663 30.2097C35.6583 30.1229 35.6542 30.035 35.6543 29.9461L35.6895 2.27246C35.6905 1.47772 36.1791 0.804079 36.9343 0.55639C37.6896 0.30864 38.4822 0.561879 38.9537 1.20156L39.0154 1.28536C39.5688 2.03613 40.0301 2.85393 40.3864 3.71605C40.9668 5.12039 41.2601 6.60292 41.2581 8.1223ZM37.4458 2.11518C37.3305 2.15302 37.3303 2.24137 37.3303 2.27451L37.308 19.7523L39.6029 19.7553L39.6177 8.1202C39.6193 6.8176 39.3679 5.54658 38.8703 4.34264C38.5649 3.60362 38.1694 2.90254 37.6948 2.25874L37.6331 2.17495C37.6189 2.15567 37.5875 2.11292 37.5271 2.10543C37.5043 2.1026 37.4775 2.1048 37.4458 2.11518ZM38.4411 31.0971C38.876 31.0977 39.2555 30.8548 39.4505 30.4974C39.5391 30.3349 39.5897 30.1488 39.5899 29.9511L39.6008 21.3959L37.3059 21.393L37.295 29.9482C37.2942 30.5809 37.808 31.0968 38.4411 31.0971ZM9.46098 17.755C9.46098 10.9008 15.0372 5.32457 21.8914 5.32457C28.7456 5.32457 34.3219 10.9008 34.3219 17.755C34.3219 24.6092 28.7455 30.1855 21.8914 30.1855C15.0373 30.1855 9.46098 24.6092 9.46098 17.755ZM11.1015 17.7549C11.1015 23.7045 15.9419 28.5448 21.8914 28.5448C27.841 28.5448 32.6813 23.7045 32.6813 17.7549C32.6813 11.8054 27.841 6.96511 21.8914 6.96511C15.9418 6.96511 11.1015 11.8054 11.1015 17.7549ZM9.15516 1.01101C8.7019 1.01012 8.33432 1.37713 8.33365 1.83012L8.32451 7.95196C8.32304 8.90605 7.64934 9.70739 6.71613 9.87874L6.16826 9.87791L6.18028 1.827C6.18096 1.37401 5.81425 1.00615 5.36117 1.0054C4.90796 1.00426 4.54033 1.37152 4.53965 1.82451L4.52763 9.87542L3.97927 9.87466C3.0467 9.70036 2.37557 8.89708 2.37697 7.94309L2.38611 1.82133C2.38679 1.36834 2.02008 1.00048 1.567 0.999727C1.11394 0.99848 0.746156 1.36584 0.745479 1.81883L0.736332 7.9406C0.734094 9.47229 1.67598 10.7939 3.05766 11.315L2.4494 29.48L2.44917 29.4862C2.42913 30.262 2.71616 30.9956 3.25734 31.5518C3.79852 32.108 4.524 32.415 5.29939 32.4161L5.31443 32.4161C5.43419 32.4163 5.55281 32.4092 5.66967 32.395C6.31374 32.3169 6.90648 32.0241 7.36653 31.5508C7.91012 30.9917 8.19669 30.2545 8.17348 29.475L7.6336 11.322C9.01698 10.8051 9.963 9.48623 9.96523 7.95445L9.97436 1.83261C9.97496 1.37963 9.60825 1.01176 9.15516 1.01101ZM6.5337 29.5239C6.54352 29.8556 6.42158 30.1693 6.19024 30.4073C5.9589 30.6453 5.64908 30.7766 5.31752 30.7756L5.30248 30.7756C4.97223 30.7751 4.66345 30.6445 4.4332 30.4078C4.20345 30.1717 4.08134 29.8605 4.08919 29.5314L4.69259 11.5164L5.34476 11.5174L5.34567 11.5174L5.34641 11.5174L5.99808 11.5183L6.5337 29.5239ZM28.0672 17.5841C28.0672 21.0083 25.2914 23.7841 21.8672 23.7841C18.4431 23.7841 15.6672 21.0083 15.6672 17.5841C15.6672 14.1599 18.4431 11.3841 21.8672 11.3841C25.2914 11.3841 28.0672 14.1599 28.0672 17.5841ZM29.8672 17.5841C29.8672 22.0024 26.2855 25.5841 21.8672 25.5841C17.449 25.5841 13.8672 22.0024 13.8672 17.5841C13.8672 13.1658 17.449 9.58409 21.8672 9.58409C26.2855 9.58409 29.8672 13.1658 29.8672 17.5841Z" fill="#E3BF77"/>
</svg>
