<svg width="37" height="32" viewBox="0 0 37 32" fill="none" xmlns="http://www.w3.org/2000/svg">
<path fill-rule="evenodd" clip-rule="evenodd" d="M31.6582 24.3684C32.4245 23.9864 33.293 23.5535 34.9539 23.5535C35.5365 23.5535 36.0088 24.0258 36.0088 24.6084C36.0088 25.191 35.5365 25.6634 34.9539 25.6634C33.7897 25.6634 33.2645 25.9252 32.5996 26.2566L32.5994 26.2567C31.8331 26.6387 30.9646 27.0716 29.3038 27.0716C27.6429 27.0716 26.7744 26.6387 26.0082 26.2567L26.0078 26.2565C25.3429 25.9251 24.8177 25.6634 23.6537 25.6634C22.4896 25.6634 21.9644 25.9252 21.2995 26.2567C20.5332 26.6387 19.6647 27.0716 18.0039 27.0716C16.3431 27.0716 15.4747 26.6387 14.7085 26.2567L14.7082 26.2566C14.0434 25.9252 13.5182 25.6634 12.3543 25.6634C11.1902 25.6634 10.665 25.9252 10.0001 26.2567C9.23387 26.6387 8.36537 27.0716 6.7046 27.0716C5.04383 27.0716 4.1754 26.6387 3.40909 26.2567C2.74419 25.9252 2.21897 25.6634 1.05495 25.6634C0.472334 25.6634 0 25.191 0 24.6084C0 24.0258 0.472334 23.5535 1.05495 23.5535C2.71561 23.5535 3.58403 23.9864 4.35024 24.3683L4.35038 24.3684L4.35059 24.3685C5.01539 24.6998 5.54062 24.9616 6.7046 24.9616C7.8687 24.9616 8.39392 24.6999 9.05882 24.3684C9.70437 24.0466 10.4226 23.6887 11.6258 23.5839V9.85467H1.05495C0.472334 9.85467 0 9.38233 0 8.79972C0 8.21711 0.472334 7.74478 1.05495 7.74478H11.6258V3.16702C11.6258 1.42073 13.0456 0 14.7906 0C16.5356 0 17.9554 1.42073 17.9554 3.16702V7.74478H22.2803V3.16702C22.2803 1.42073 23.7001 0 25.445 0C27.1901 0 28.6098 1.42073 28.6098 3.16702V7.74478H34.9539C35.5365 7.74478 36.0088 8.21711 36.0088 8.79972C36.0088 9.38233 35.5365 9.85467 34.9539 9.85467H24.3901V23.5846C25.5887 23.6903 26.3052 24.0473 26.9494 24.3684L26.95 24.3687C27.6148 24.7 28.14 24.9616 29.3038 24.9616C30.4679 24.9616 30.9932 24.6999 31.6582 24.3684ZM22.2803 15.774H13.7357V19.2967H22.2803V15.774ZM25.445 2.10989C24.8634 2.10989 24.3902 2.58412 24.3902 3.16702V7.74478H26.4999V3.16702C26.4999 2.58412 26.0267 2.10989 25.445 2.10989ZM14.7906 2.10989C14.209 2.10989 13.7357 2.58412 13.7357 3.16702V7.74478H15.8455V3.16702C15.8455 2.58412 15.3723 2.10989 14.7906 2.10989ZM22.2803 13.6641V9.85467H13.7357V13.6641H22.2803ZM18.004 24.9616C19.168 24.9616 19.6933 24.6999 20.3583 24.3684C20.8793 24.1087 21.4478 23.8255 22.2803 23.6708V21.4066H13.7357V23.6723C14.5639 23.8274 15.1305 24.1095 15.6498 24.3684L15.65 24.3685C16.3148 24.6998 16.8401 24.9616 18.004 24.9616ZM31.6582 29.2968C32.4245 28.9148 33.293 28.482 34.9539 28.482C35.5365 28.482 36.0088 28.9543 36.0089 29.5369C36.0089 30.1195 35.5365 30.5919 34.9539 30.5919C33.7897 30.5919 33.2644 30.8537 32.5994 31.1852C31.8332 31.5671 30.9647 32 29.3039 32C27.643 32 26.7745 31.5671 26.0083 31.1852L26.0081 31.185C25.3431 30.8536 24.8179 30.5919 23.6538 30.5919C22.4897 30.5919 21.9645 30.8537 21.2996 31.1851L21.2995 31.1852C20.5333 31.5671 19.6648 32 18.004 32C16.3433 32 15.475 31.5672 14.7087 31.1852L14.7085 31.1852L14.7083 31.185C14.0434 30.8536 13.5183 30.5919 12.3544 30.5919C11.1904 30.5919 10.6651 30.8537 10.0002 31.1851L10.0001 31.1852C9.23394 31.5671 8.36544 32 6.70467 32C5.04383 32 4.1754 31.5671 3.40916 31.1852L3.40904 31.1851C2.74413 30.8537 2.2189 30.5919 1.05495 30.5919C0.472334 30.5919 0 30.1195 0 29.5369C0 28.9543 0.472334 28.482 1.05495 28.482C2.71554 28.482 3.58403 28.9149 4.35017 29.2967L4.35031 29.2968L4.35043 29.2969C5.01534 29.6283 5.54057 29.8901 6.7046 29.8901C7.86863 29.8901 8.39386 29.6283 9.05877 29.2969L9.05889 29.2968C9.82506 28.9148 10.6936 28.482 12.3543 28.482C14.0151 28.482 14.8834 28.9148 15.6497 29.2968L15.6497 29.2968L15.6498 29.2969C16.3147 29.6283 16.84 29.8901 18.0039 29.8901C19.1679 29.8901 19.6932 29.6283 20.3581 29.2969L20.3582 29.2968C21.1244 28.9148 21.9929 28.482 23.6537 28.482C25.3146 28.482 26.183 28.9148 26.9493 29.2968L26.9494 29.2968L26.9496 29.2969C27.6145 29.6283 28.1397 29.8901 29.3038 29.8901C30.4679 29.8901 30.9932 29.6283 31.6582 29.2968Z" fill="#E3BF77"/>
</svg>
