<svg width="22" height="12" viewBox="0 0 22 12" fill="none" xmlns="http://www.w3.org/2000/svg">
<path opacity="0.4" d="M21.8833 10.8373C21.8567 10.7824 21.8319 10.7369 21.8088 10.7004C21.4271 10.0432 20.6977 9.23652 19.621 8.28012L19.5982 8.25822L19.5868 8.24748L19.5753 8.23647H19.5638C19.0751 7.79113 18.7657 7.49169 18.6361 7.33838C18.399 7.04634 18.3459 6.75074 18.4754 6.45122C18.567 6.22492 18.9109 5.74701 19.5064 5.01684C19.8196 4.62987 20.0676 4.31973 20.2508 4.08607C21.572 2.40687 22.1448 1.33383 21.9691 0.86655L21.9008 0.757352C21.855 0.691611 21.7366 0.63147 21.5459 0.576621C21.3548 0.521888 21.1105 0.512837 20.8126 0.549313L17.5138 0.571098C17.4604 0.552994 17.3841 0.554682 17.2846 0.576621C17.1853 0.598561 17.1357 0.609569 17.1357 0.609569L17.0783 0.636993L17.0327 0.66994C16.9945 0.691726 16.9525 0.730043 16.9066 0.784815C16.861 0.839395 16.8229 0.903448 16.7924 0.976438C16.4332 1.8598 16.0249 2.68111 15.5666 3.44032C15.284 3.89303 15.0245 4.28536 14.7876 4.61756C14.5509 4.94964 14.3523 5.19431 14.1921 5.35115C14.0316 5.50813 13.8868 5.6339 13.7567 5.72891C13.6269 5.82395 13.5277 5.86411 13.4591 5.84942C13.3903 5.83473 13.3255 5.82016 13.2641 5.80558C13.1573 5.73984 13.0714 5.65043 13.0066 5.53728C12.9415 5.42414 12.8977 5.28172 12.8748 5.11016C12.852 4.93848 12.8385 4.79081 12.8346 4.66666C12.8311 4.54265 12.8327 4.36725 12.8405 4.14095C12.8484 3.91454 12.852 3.76135 12.852 3.68104C12.852 3.40357 12.8576 3.10244 12.869 2.77757C12.8805 2.4527 12.8899 2.1953 12.8977 2.00567C12.9055 1.81585 12.9091 1.61502 12.9091 1.4033C12.9091 1.19157 12.8956 1.02553 12.869 0.905021C12.8427 0.784661 12.8023 0.667831 12.749 0.554567C12.6955 0.441418 12.6171 0.353891 12.5142 0.291756C12.4111 0.229696 12.283 0.180448 12.1305 0.143857C11.7257 0.0562913 11.2103 0.00892239 10.584 0.00155814C9.16374 -0.0130169 8.25114 0.0746635 7.84641 0.264485C7.68605 0.344686 7.54094 0.454267 7.41119 0.592884C7.2737 0.753555 7.25452 0.841236 7.35378 0.855658C7.81203 0.921284 8.13643 1.07827 8.32736 1.32647L8.39617 1.45799C8.44969 1.55288 8.50313 1.72088 8.55661 1.96175C8.61001 2.20262 8.64447 2.46908 8.65963 2.76096C8.69775 3.29399 8.69775 3.75027 8.65963 4.12983C8.6214 4.50955 8.58529 4.80516 8.55083 5.01688C8.51637 5.2286 8.46485 5.40016 8.39617 5.53153C8.32736 5.66294 8.28159 5.74325 8.25864 5.7724C8.23573 5.80155 8.21663 5.81993 8.20147 5.82714C8.10221 5.8635 7.99898 5.88202 7.89214 5.88202C7.78515 5.88202 7.6554 5.83086 7.5027 5.7286C7.35005 5.62635 7.19161 5.48589 7.0274 5.307C6.86319 5.12807 6.678 4.87803 6.47175 4.55684C6.26565 4.23565 6.05181 3.85605 5.83035 3.41803L5.64713 3.10037C5.53259 2.89601 5.37612 2.59845 5.17757 2.20796C4.97889 1.8173 4.80329 1.43943 4.65063 1.0744C4.58961 0.921091 4.49794 0.804376 4.37577 0.72406L4.31844 0.691112C4.28033 0.661962 4.21915 0.631009 4.13522 0.598024C4.05117 0.565076 3.96346 0.541449 3.87175 0.526912L0.733227 0.548699C0.412511 0.548699 0.194901 0.61816 0.0803196 0.756892L0.0344628 0.822518C0.0115545 0.859071 0 0.917448 0 0.997803C0 1.07812 0.0229083 1.17669 0.0687651 1.29341C0.526932 2.32287 1.02518 3.3157 1.5635 4.27205C2.10183 5.22841 2.56963 5.99878 2.96661 6.58247C3.36367 7.16659 3.7684 7.71787 4.18079 8.23605C4.59318 8.75443 4.86616 9.08662 4.99972 9.23256C5.13343 9.37878 5.23847 9.48809 5.31482 9.56108L5.60123 9.82385C5.7845 9.9991 6.05362 10.209 6.40872 10.4535C6.7639 10.6982 7.15711 10.939 7.58856 11.1765C8.02009 11.4136 8.5221 11.607 9.09489 11.7567C9.6676 11.9064 10.225 11.9665 10.7672 11.9375H12.0845C12.3517 11.9155 12.5541 11.8352 12.6917 11.6966L12.7372 11.6417C12.7679 11.5981 12.7966 11.5304 12.8231 11.4393C12.8499 11.3481 12.8632 11.2475 12.8632 11.1382C12.8554 10.8243 12.8803 10.5414 12.9375 10.2896C12.9946 10.0378 13.0596 9.84802 13.1324 9.72018C13.2052 9.59245 13.2872 9.48467 13.3786 9.3973C13.4701 9.30974 13.5354 9.25669 13.5737 9.23843C13.6117 9.22006 13.6421 9.20759 13.665 9.20012C13.8482 9.14174 14.0639 9.19827 14.3123 9.36999C14.5606 9.54156 14.7934 9.75339 15.0111 10.0052C15.2288 10.2572 15.4903 10.5399 15.7957 10.8537C16.1013 11.1677 16.3685 11.4011 16.5975 11.5546L16.8265 11.686C16.9794 11.7737 17.178 11.854 17.4224 11.927C17.6663 12 17.8801 12.0182 18.0636 11.9818L20.9959 11.938C21.2859 11.938 21.5116 11.8921 21.6717 11.801C21.8321 11.7098 21.9273 11.6093 21.9581 11.4999C21.9887 11.3904 21.9904 11.2662 21.9639 11.1274C21.9367 10.9889 21.91 10.8921 21.8833 10.8373Z" fill="#2D2D2D"/>
</svg>
